<svg width="114" height="102" viewBox="0 0 114 102" fill="none" xmlns="http://www.w3.org/2000/svg">
<path d="M82.1949 89.3152C87.8273 84.2896 92.2943 78.3176 95.3389 71.7424C98.3835 65.1673 99.9459 58.1186 99.9361 51.0014C99.9459 43.8843 98.3835 36.8356 95.3389 30.2604C92.2943 23.6853 87.8273 17.7133 82.1949 12.6877L77.1504 17.1948C82.1202 21.6292 86.0616 26.8987 88.748 32.7003C91.4344 38.502 92.8128 44.7216 92.804 51.0014C92.804 64.2041 86.819 76.1572 77.1504 84.8081L82.1949 89.3152Z" fill="#F8F9FA"/>
<path d="M72.1126 80.2983C76.4195 76.4549 79.8351 71.888 82.1632 66.8598C84.4913 61.8316 85.686 56.4414 85.6786 50.9988C85.686 45.5563 84.4913 40.166 82.1632 35.1379C79.8351 30.1097 76.4195 25.5427 72.1126 21.6993L67.0752 26.2065C70.7195 29.4586 73.6096 33.3231 75.5795 37.5778C77.5493 41.8325 78.56 46.3935 78.5536 50.9988C78.5619 55.6048 77.5527 60.1667 75.5841 64.4226C73.6155 68.6784 70.7262 72.5441 67.0823 75.7976L72.1126 80.2983Z" fill="#F8F9FA"/>
<path d="M62.0374 71.2845C65.0191 68.6235 67.3836 65.4615 68.9952 61.9803C70.6068 58.4991 71.4336 54.7672 71.4281 50.9992C71.4336 47.2312 70.6068 43.4993 68.9952 40.0181C67.3836 36.5369 65.0191 33.3749 62.0374 30.714L57 35.2211C59.3191 37.2909 61.1581 39.7503 62.4114 42.458C63.6648 45.1658 64.3076 48.0685 64.3031 50.9992C64.3072 53.9299 63.6642 56.8325 62.4109 59.5402C61.1576 62.2479 59.3188 64.7074 57 66.7773L62.0374 71.2845Z" fill="#F8F9FA"/>
<path fill-rule="evenodd" clip-rule="evenodd" d="M47.8586 22.6309C48.4622 22.891 48.9716 23.2982 49.3282 23.8056C49.6849 24.313 49.8744 24.9002 49.875 25.4996V76.4996C49.874 77.0994 49.684 77.6868 49.3266 78.1942C48.9693 78.7017 48.4592 79.1087 47.8549 79.3683C47.2506 79.628 46.5767 79.7299 45.9106 79.6622C45.2446 79.5945 44.6133 79.3601 44.0895 78.9858L27.2531 66.9371H10.6875C9.74267 66.9371 8.83653 66.6013 8.16843 66.0035C7.50033 65.4057 7.125 64.595 7.125 63.7496V38.2496C7.125 37.4042 7.50033 36.5935 8.16843 35.9957C8.83653 35.3979 9.74267 35.0621 10.6875 35.0621H27.2531L44.0895 23.0134C44.6137 22.6384 45.2456 22.4036 45.9124 22.3359C46.5793 22.2683 47.2539 22.3705 47.8586 22.6309V22.6309Z" fill="#F8F9FA"/>
</svg>
